<mxfile host="app.diagrams.net" modified="2023-02-17T15:46:24.515Z" agent="5.0 (Windows NT 10.0; Win64; x64) AppleWebKit/537.36 (KHTML, like Gecko) Chrome/110.0.0.0 Safari/537.36 Edg/110.0.1587.46" etag="7yHfl4fZFUI44aEypG6E" version="20.8.20" type="github">
  <diagram id="C5RBs43oDa-KdzZeNtuy" name="Page-1">
    <mxGraphModel dx="698" dy="443" grid="1" gridSize="10" guides="1" tooltips="1" connect="1" arrows="1" fold="1" page="1" pageScale="1" pageWidth="827" pageHeight="1169" math="0" shadow="0">
      <root>
        <mxCell id="WIyWlLk6GJQsqaUBKTNV-0" />
        <mxCell id="WIyWlLk6GJQsqaUBKTNV-1" parent="WIyWlLk6GJQsqaUBKTNV-0" />
        <mxCell id="hNto1zfpgKtfs089AwL4-6" style="edgeStyle=orthogonalEdgeStyle;rounded=0;orthogonalLoop=1;jettySize=auto;html=1;entryX=0;entryY=0.5;entryDx=0;entryDy=0;" edge="1" parent="WIyWlLk6GJQsqaUBKTNV-1" source="hNto1zfpgKtfs089AwL4-3" target="hNto1zfpgKtfs089AwL4-5">
          <mxGeometry relative="1" as="geometry">
            <Array as="points">
              <mxPoint x="400" y="140" />
              <mxPoint x="400" y="140" />
            </Array>
          </mxGeometry>
        </mxCell>
        <mxCell id="hNto1zfpgKtfs089AwL4-7" style="edgeStyle=orthogonalEdgeStyle;rounded=0;orthogonalLoop=1;jettySize=auto;html=1;" edge="1" parent="WIyWlLk6GJQsqaUBKTNV-1" source="hNto1zfpgKtfs089AwL4-3">
          <mxGeometry relative="1" as="geometry">
            <mxPoint x="170" y="140" as="targetPoint" />
          </mxGeometry>
        </mxCell>
        <mxCell id="hNto1zfpgKtfs089AwL4-9" style="edgeStyle=orthogonalEdgeStyle;rounded=0;orthogonalLoop=1;jettySize=auto;html=1;" edge="1" parent="WIyWlLk6GJQsqaUBKTNV-1" source="hNto1zfpgKtfs089AwL4-3">
          <mxGeometry relative="1" as="geometry">
            <mxPoint x="300" y="230" as="targetPoint" />
          </mxGeometry>
        </mxCell>
        <mxCell id="hNto1zfpgKtfs089AwL4-3" value="创建Card类" style="rounded=0;whiteSpace=wrap;html=1;fillColor=#dae8fc;strokeColor=#6c8ebf;" vertex="1" parent="WIyWlLk6GJQsqaUBKTNV-1">
          <mxGeometry x="250" y="110" width="100" height="60" as="geometry" />
        </mxCell>
        <mxCell id="hNto1zfpgKtfs089AwL4-5" value="作Suit枚举（花色）" style="whiteSpace=wrap;html=1;fillColor=#d5e8d4;strokeColor=#82b366;" vertex="1" parent="WIyWlLk6GJQsqaUBKTNV-1">
          <mxGeometry x="414" y="110" width="120" height="60" as="geometry" />
        </mxCell>
        <mxCell id="hNto1zfpgKtfs089AwL4-8" value="创建Rank枚举" style="whiteSpace=wrap;html=1;fillColor=#d5e8d4;strokeColor=#82b366;" vertex="1" parent="WIyWlLk6GJQsqaUBKTNV-1">
          <mxGeometry x="50" y="110" width="120" height="60" as="geometry" />
        </mxCell>
        <mxCell id="hNto1zfpgKtfs089AwL4-15" style="edgeStyle=orthogonalEdgeStyle;rounded=0;orthogonalLoop=1;jettySize=auto;html=1;" edge="1" parent="WIyWlLk6GJQsqaUBKTNV-1" source="hNto1zfpgKtfs089AwL4-12" target="hNto1zfpgKtfs089AwL4-16">
          <mxGeometry relative="1" as="geometry">
            <mxPoint x="315" y="560" as="targetPoint" />
          </mxGeometry>
        </mxCell>
        <mxCell id="hNto1zfpgKtfs089AwL4-12" value="创建Game" style="rounded=0;whiteSpace=wrap;html=1;fillColor=#dae8fc;strokeColor=#6c8ebf;" vertex="1" parent="WIyWlLk6GJQsqaUBKTNV-1">
          <mxGeometry x="255" y="460" width="120" height="60" as="geometry" />
        </mxCell>
        <mxCell id="hNto1zfpgKtfs089AwL4-14" value="1." style="shape=process;whiteSpace=wrap;html=1;backgroundOutline=1;" vertex="1" parent="WIyWlLk6GJQsqaUBKTNV-1">
          <mxGeometry x="180" y="230" width="270" height="160" as="geometry" />
        </mxCell>
        <mxCell id="hNto1zfpgKtfs089AwL4-19" value="" style="edgeStyle=orthogonalEdgeStyle;rounded=0;orthogonalLoop=1;jettySize=auto;html=1;" edge="1" parent="WIyWlLk6GJQsqaUBKTNV-1" source="hNto1zfpgKtfs089AwL4-16" target="hNto1zfpgKtfs089AwL4-18">
          <mxGeometry relative="1" as="geometry" />
        </mxCell>
        <mxCell id="hNto1zfpgKtfs089AwL4-16" value="洗牌" style="rounded=1;whiteSpace=wrap;html=1;" vertex="1" parent="WIyWlLk6GJQsqaUBKTNV-1">
          <mxGeometry x="272.5" y="540" width="85" height="50" as="geometry" />
        </mxCell>
        <mxCell id="hNto1zfpgKtfs089AwL4-23" style="edgeStyle=orthogonalEdgeStyle;rounded=0;orthogonalLoop=1;jettySize=auto;html=1;" edge="1" parent="WIyWlLk6GJQsqaUBKTNV-1" source="hNto1zfpgKtfs089AwL4-18">
          <mxGeometry relative="1" as="geometry">
            <mxPoint x="315" y="690" as="targetPoint" />
          </mxGeometry>
        </mxCell>
        <mxCell id="hNto1zfpgKtfs089AwL4-18" value="看牌（顺带排序）" style="whiteSpace=wrap;html=1;rounded=1;" vertex="1" parent="WIyWlLk6GJQsqaUBKTNV-1">
          <mxGeometry x="267.5" y="620" width="95" height="40" as="geometry" />
        </mxCell>
        <mxCell id="hNto1zfpgKtfs089AwL4-25" style="edgeStyle=orthogonalEdgeStyle;rounded=0;orthogonalLoop=1;jettySize=auto;html=1;" edge="1" parent="WIyWlLk6GJQsqaUBKTNV-1" source="hNto1zfpgKtfs089AwL4-24">
          <mxGeometry relative="1" as="geometry">
            <mxPoint x="315" y="770" as="targetPoint" />
          </mxGeometry>
        </mxCell>
        <mxCell id="hNto1zfpgKtfs089AwL4-24" value="抢地主" style="whiteSpace=wrap;html=1;" vertex="1" parent="WIyWlLk6GJQsqaUBKTNV-1">
          <mxGeometry x="267.5" y="690" width="95" height="50" as="geometry" />
        </mxCell>
        <mxCell id="hNto1zfpgKtfs089AwL4-27" style="edgeStyle=orthogonalEdgeStyle;rounded=0;orthogonalLoop=1;jettySize=auto;html=1;" edge="1" parent="WIyWlLk6GJQsqaUBKTNV-1" source="hNto1zfpgKtfs089AwL4-26">
          <mxGeometry relative="1" as="geometry">
            <mxPoint x="315" y="860" as="targetPoint" />
          </mxGeometry>
        </mxCell>
        <mxCell id="hNto1zfpgKtfs089AwL4-29" style="edgeStyle=orthogonalEdgeStyle;rounded=0;orthogonalLoop=1;jettySize=auto;html=1;" edge="1" parent="WIyWlLk6GJQsqaUBKTNV-1" source="hNto1zfpgKtfs089AwL4-26">
          <mxGeometry relative="1" as="geometry">
            <mxPoint x="420" y="795" as="targetPoint" />
          </mxGeometry>
        </mxCell>
        <mxCell id="hNto1zfpgKtfs089AwL4-26" value="循环出牌" style="whiteSpace=wrap;html=1;" vertex="1" parent="WIyWlLk6GJQsqaUBKTNV-1">
          <mxGeometry x="265" y="770" width="100" height="50" as="geometry" />
        </mxCell>
        <mxCell id="hNto1zfpgKtfs089AwL4-32" style="edgeStyle=orthogonalEdgeStyle;rounded=0;orthogonalLoop=1;jettySize=auto;html=1;" edge="1" parent="WIyWlLk6GJQsqaUBKTNV-1" source="hNto1zfpgKtfs089AwL4-28">
          <mxGeometry relative="1" as="geometry">
            <mxPoint x="420" y="890" as="targetPoint" />
          </mxGeometry>
        </mxCell>
        <mxCell id="hNto1zfpgKtfs089AwL4-28" value="获胜" style="whiteSpace=wrap;html=1;" vertex="1" parent="WIyWlLk6GJQsqaUBKTNV-1">
          <mxGeometry x="260" y="860" width="110" height="60" as="geometry" />
        </mxCell>
        <mxCell id="hNto1zfpgKtfs089AwL4-31" value="把出的牌放到另一个集合里" style="shape=parallelogram;perimeter=parallelogramPerimeter;whiteSpace=wrap;html=1;fixedSize=1;" vertex="1" parent="WIyWlLk6GJQsqaUBKTNV-1">
          <mxGeometry x="414" y="765" width="120" height="60" as="geometry" />
        </mxCell>
        <mxCell id="hNto1zfpgKtfs089AwL4-33" value="玩家的集合元素为0" style="shape=parallelogram;perimeter=parallelogramPerimeter;whiteSpace=wrap;html=1;fixedSize=1;" vertex="1" parent="WIyWlLk6GJQsqaUBKTNV-1">
          <mxGeometry x="414" y="860" width="120" height="60" as="geometry" />
        </mxCell>
      </root>
    </mxGraphModel>
  </diagram>
</mxfile>
